<svg xmlns="http://www.w3.org/2000/svg" width="252" height="108" viewBox="0 0 252 108">
    <defs>
        <linearGradient id="a" x1="38.867%" x2="38.867%" y1="84.559%" y2="0%">
            <stop offset="0%" stop-color="#FFF"/>
            <stop offset="100%" stop-color="#F2F2F2"/>
        </linearGradient>
        <linearGradient id="b" x1="38.867%" x2="38.867%" y1="84.559%" y2="0%">
            <stop offset="0%" stop-color="#FFF"/>
            <stop offset="100%" stop-color="#F2F2F2"/>
        </linearGradient>
        <linearGradient id="c" x1="38.867%" x2="38.867%" y1="84.559%" y2="0%">
            <stop offset="0%" stop-color="#FFF"/>
            <stop offset="100%" stop-color="#F2F2F2"/>
        </linearGradient>
        <linearGradient id="d" x1="39.057%" x2="151.633%" y1="50.967%" y2="48.176%">
            <stop offset="0%" stop-color="#E7ECF6"/>
            <stop offset="100%" stop-color="#FAFAFA"/>
        </linearGradient>
    </defs>
    <g fill="none" fill-rule="evenodd" transform="translate(0 -18)">
        <path d="M0 0h252v144H0z"/>
        <path fill="url(#a)" d="M44.918 28.2s1.702-3.001 3.842-3.936 4.5-.784 4.5-.784.109-5.852 8.186-6.712c8.078-.86 9.386 4.469 9.386 4.469s3.585-1.821 6.946-1.337c3.361.485 4.793 3.03 4.793 3.03s1.841-1.345 4.643 0c2.8 1.343 3.415 3.866 3.415 3.866s3.5 0 3.5 2.841c0 2.842-2.49 2.11-2.49 2.11" transform="translate(0 18)"/>
        <path fill="url(#b)" d="M0 107.654c34.34-14.24 74.04-20.92 119.098-20.04 32.99.644 60.398-3.9 102.617 4.438 16.616 3.28 26.678 8.482 30.187 15.602" transform="translate(0 18)"/>
        <path fill="url(#c)" d="M174.725 15.157s2.237-3.947 5.051-5.176 5.919-1.03 5.919-1.03.142-7.696 10.764-8.827C207.082-1.008 208.802 6 208.802 6s4.714-2.395 9.134-1.758 6.302 3.983 6.302 3.983 2.422-1.767 6.105 0c3.684 1.768 4.491 5.085 4.491 5.085s4.604 0 4.604 3.736c0 3.737-3.276 2.774-3.276 2.774" transform="translate(0 18)"/>
        <g fill="#DADDE6" fill-rule="nonzero">
            <path d="M75.677 107.845v-5.82H59.99c-1.98 0-3.464-.449-4.453-1.346-.99-.897-1.485-2.117-1.485-3.66 0-.397.073-.799.22-1.205.145-.407.364-.835.655-1.283.292-.449.594-.882.907-1.299.312-.417.698-.928 1.156-1.533l16.563-22.186c1.084-1.46 1.974-2.519 2.672-3.176.698-.657 1.537-.985 2.516-.985 3.167 0 4.75 1.815 4.75 5.444v24.22h1.344c1.604 0 2.891.219 3.86.657.969.438 1.453 1.397 1.453 2.879 0 1.21-.396 2.09-1.188 2.644-.791.552-1.979.829-3.562.829H83.49v5.82c0 1.606-.354 2.8-1.062 3.583-.709.782-1.657 1.173-2.844 1.173-1.167 0-2.11-.401-2.828-1.204-.72-.804-1.079-1.987-1.079-3.552zM62.24 95.015h13.438v-18.18L62.24 95.016zM179.683 107.845v-5.82h-15.688c-1.98 0-3.464-.449-4.454-1.346-.99-.897-1.484-2.117-1.484-3.66 0-.397.073-.799.218-1.205.146-.407.365-.835.657-1.283.291-.449.594-.882.906-1.299.313-.417.698-.928 1.156-1.533l16.564-22.186c1.083-1.46 1.974-2.519 2.672-3.176.698-.657 1.536-.985 2.515-.985 3.167 0 4.75 1.815 4.75 5.444v24.22h1.345c1.604 0 2.89.219 3.86.657.968.438 1.452 1.397 1.452 2.879 0 1.21-.396 2.09-1.187 2.644-.792.552-1.98.829-3.563.829h-1.906v5.82c0 1.606-.354 2.8-1.063 3.583-.708.782-1.656 1.173-2.844 1.173-1.166 0-2.11-.401-2.828-1.204-.719-.804-1.078-1.987-1.078-3.552zm-13.438-12.83h13.438v-18.18l-13.438 18.18z"/>
        </g>
        <g transform="translate(92 59)">
            <ellipse cx="31.814" cy="58.252" fill="url(#d)" rx="31.814" ry="4.539"/>
            <path fill="#FEDD00" d="M47.262 57.08c9.533-5.197 15.983-15.175 15.983-26.63C63.245 13.633 49.345 0 32.197 0 15.05 0 1.15 13.633 1.15 30.45c0 11.382 6.368 21.306 15.8 26.53 2.183 1.21 8.99.048 15.247.1 6.65.057 12.767 1.254 15.065 0z"/>
            <path fill="#222" d="M8.466 48.788c-.362-3.42-.174-6.649.567-9.684 1.11-4.552 1.105-2.693 4.044-10.579 2.939-7.886-.215-7.9 5.163-14.125 5.378-6.224 10.618-4.866 18.56-2.995 7.942 1.871 10.717 7.826 11.144 9.995.427 2.169-.02 6.95 1.341 11.624 1.36 4.674 3.504 4.516 4.22 9.642.476 3.418-.126 7.226-1.804 11.425-16.761-.412-29.29-.811-37.585-1.197-8.295-.386-9.8-.64-4.513-.762l-1.137-3.344z"/>
            <path fill="#F0F0F0" d="M13.032 43.6l1.059-1.235 3.924 3.131-1.029 1.786-3.613-.948zM43.74 43.65l1.346 2.286 4.213-3.28-1.435-1.641z"/>
            <path fill="#F5E1E1" d="M27.068 46.217c.24 1.1.107 1.96-.396 2.576-.503.616-1.728 1.114-3.674 1.492 1.978 2.79 4.67 4.184 8.079 4.184 3.407 0 5.825-1.395 7.253-4.184-1.396-.033-2.386-.53-2.97-1.492-.584-.963-.584-2.097 0-3.402h-8.292v.826z"/>
            <path fill="#FEDD00" d="M20.822 50.607l2.652-.677c2.192 1.931 4.551 2.897 7.077 2.897s5.088-.832 7.686-2.495l2.673.698-.72 6.373-11.953 1.605-8.305-5.463.89-2.938z"/>
            <path fill="#0064D2" d="M13.41 42.964C7.13 49.263 3.99 53.728 3.99 56.36c0 3.948 19.681 4.212 27.057 4.211 12.333 0 25.816-1.336 27.676-2.34 1.982-1.07-1.43-6.611-10.238-16.623l-4.308 2.947 4.308 8.277-7.758-1.75c-1.604 3.91-4.83 5.865-9.68 5.865-4.849 0-8.233-2.117-10.151-6.353l-6.684 2.238 3.373-6.46-4.175-3.408z"/>
            <path fill="#F2D0C5" d="M22.615 39.59c1.323 5.128 4.215 7.692 8.674 7.692 4.46 0 7.351-2.564 8.675-7.693 1.851-4.45 2.534-8.16 2.047-11.134-.73-4.46-3.655-8.03-6.125-8.03s-4.409.797-7.624 3.951c-2.144 2.103-4.026 7.174-5.647 15.213z"/>
            <path fill="#F2D0C5" d="M43.826 43.878l-2.473-3.77c-1.53-.165-2.702-.438-3.516-.82-.814-.381-2.019-1.69-3.614-3.928-.258-2.408-.06-3.981.594-4.72.981-1.108 3.814-1.892 5.26-1.892 1.447 0 3.81.908 4.962 2.83.768 1.28.768 3.096 0 5.447l2.927 4.156-4.14 2.697zM17.926 45.77c1.425-2.228 2.526-3.832 3.304-4.815.777-.982 1.267-1.387 1.469-1.214 1.52-.165 2.686-.439 3.496-.82.81-.382 2.007-1.693 3.593-3.932.257-2.41.06-3.986-.59-4.725-.976-1.11-3.793-1.895-5.231-1.895-1.439 0-3.789.91-4.934 2.833-.764 1.282-.764 3.1 0 5.453L13.799 42.6l4.127 3.168z"/>
            <path fill="#222" fill-rule="nonzero" d="M25.298 38.96c-2.752 0-4.983-2.201-4.983-4.917 0-2.716 2.23-4.917 4.983-4.917 2.752 0 4.983 2.201 4.983 4.917 0 2.716-2.231 4.917-4.983 4.917zm0-1.49c1.918 0 3.473-1.534 3.473-3.427s-1.555-3.427-3.473-3.427-3.473 1.534-3.473 3.427 1.555 3.427 3.473 3.427zM39.48 38.96c-2.752 0-4.983-2.201-4.983-4.917 0-2.716 2.231-4.917 4.983-4.917s4.983 2.201 4.983 4.917c0 2.716-2.231 4.917-4.983 4.917zm0-1.49c1.918 0 3.473-1.534 3.473-3.427s-1.555-3.427-3.473-3.427-3.473 1.534-3.473 3.427 1.555 3.427 3.473 3.427z"/>
            <path fill="#EBB19F" d="M29.13 41.127c.666-.183 1.198-.275 1.597-.275.597 0 .768.275 1.226.275.459 0 .481-.275 1.304-.275.548 0 1.09.092 1.623.275-.999.825-1.974 1.238-2.927 1.238-.952 0-1.893-.413-2.822-1.238z"/>
            <path fill="#222" d="M29.13 31.395h6.134v4.54c-1.022-.544-2.045-.816-3.067-.816-1.022 0-2.044.272-3.066.815v-4.539z"/>
        </g>
        <circle cx="115.628" cy="92.372" r="3.349" fill="#D8D8D8"/>
        <circle cx="129.023" cy="92.372" r="3.349" fill="#D8D8D8"/>
    </g>
</svg>
